<?xml version="1.0" encoding="UTF-8" standalone="no"?><svg xmlns="http://www.w3.org/2000/svg" xmlns:xlink="http://www.w3.org/1999/xlink" contentScriptType="application/ecmascript" contentStyleType="text/css" height="501px" preserveAspectRatio="none" style="width:714px;height:501px;" version="1.1" viewBox="0 0 714 501" width="714px" zoomAndPan="magnify"><defs><filter height="300%" id="f1aiu1qknz0krf" width="300%" x="-1" y="-1"><feGaussianBlur result="blurOut" stdDeviation="2.0"/><feColorMatrix in="blurOut" result="blurOut2" type="matrix" values="0 0 0 0 0 0 0 0 0 0 0 0 0 0 0 0 0 0 .4 0"/><feOffset dx="4.0" dy="4.0" in="blurOut2" result="blurOut3"/><feBlend in="SourceGraphic" in2="blurOut3" mode="normal"/></filter></defs><g><text fill="#000000" font-family="sans-serif" font-size="18" lengthAdjust="spacingAndGlyphs" textLength="168" x="279" y="18.0967">Game initialization</text><!--MD5=[86f67f12f924156205793317a24e4c7e]
cluster App.main--><polygon fill="#FFFFFF" filter="url(#f1aiu1qknz0krf)" points="156,45.876,235,45.876,242,68.8906,520,68.8906,520,267.876,156,267.876,156,45.876" style="stroke: #000000; stroke-width: 1.5;"/><line style="stroke: #000000; stroke-width: 1.5;" x1="156" x2="242" y1="68.8906" y2="68.8906"/><text fill="#000000" font-family="sans-serif" font-size="14" font-weight="bold" lengthAdjust="spacingAndGlyphs" textLength="73" x="160" y="61.9512">App.main</text><!--MD5=[2b611c2d60e481aa2035053367969193]
cluster Game--><polygon fill="#FFFFFF" filter="url(#f1aiu1qknz0krf)" points="22,291.876,71,291.876,78,314.8906,692,314.8906,692,489.876,22,489.876,22,291.876" style="stroke: #000000; stroke-width: 1.5;"/><line style="stroke: #000000; stroke-width: 1.5;" x1="22" x2="78" y1="314.8906" y2="314.8906"/><text fill="#000000" font-family="sans-serif" font-size="14" font-weight="bold" lengthAdjust="spacingAndGlyphs" textLength="43" x="26" y="307.9512">Game</text><!--MD5=[c5017fc1d44f31a6187af3cc68e17e3e]
cluster Game.GameBoard--><polygon fill="#FFFFFF" filter="url(#f1aiu1qknz0krf)" points="46,378.876,190,378.876,197,401.8906,668,401.8906,668,465.876,46,465.876,46,378.876" style="stroke: #000000; stroke-width: 1.5;"/><line style="stroke: #000000; stroke-width: 1.5;" x1="46" x2="197" y1="401.8906" y2="401.8906"/><text fill="#000000" font-family="sans-serif" font-size="14" font-weight="bold" lengthAdjust="spacingAndGlyphs" textLength="138" x="50" y="394.9512">Game.GameBoard</text><ellipse cx="338" cy="91.876" fill="#000000" filter="url(#f1aiu1qknz0krf)" rx="10" ry="10" style="stroke: none; stroke-width: 1.0;"/><rect fill="#FEFECE" filter="url(#f1aiu1qknz0krf)" height="34.584" rx="12.5" ry="12.5" style="stroke: #A80036; stroke-width: 1.5;" width="172" x="252" y="141.876"/><text fill="#000000" font-family="sans-serif" font-size="12" lengthAdjust="spacingAndGlyphs" textLength="152" x="262" y="163.9404">load GameConfiguration</text><rect fill="#FEFECE" filter="url(#f1aiu1qknz0krf)" height="34.584" rx="12.5" ry="12.5" style="stroke: #A80036; stroke-width: 1.5;" width="331" x="172.5" y="216.876"/><text fill="#000000" font-family="sans-serif" font-size="12" lengthAdjust="spacingAndGlyphs" textLength="311" x="182.5" y="238.9404">create Game according to the GameConfiguration</text><rect fill="#FEFECE" filter="url(#f1aiu1qknz0krf)" height="34.584" rx="12.5" ry="12.5" style="stroke: #A80036; stroke-width: 1.5;" width="116" x="280" y="327.876"/><text fill="#000000" font-family="sans-serif" font-size="12" lengthAdjust="spacingAndGlyphs" textLength="96" x="290" y="349.9404">init GameBoard</text><rect fill="#FEFECE" filter="url(#f1aiu1qknz0krf)" height="34.584" rx="12.5" ry="12.5" style="stroke: #A80036; stroke-width: 1.5;" width="67" x="584.5" y="414.876"/><text fill="#000000" font-family="sans-serif" font-size="12" lengthAdjust="spacingAndGlyphs" textLength="47" x="594.5" y="436.9404">init Bag</text><rect fill="#FEFECE" filter="url(#f1aiu1qknz0krf)" height="34.584" rx="12.5" ry="12.5" style="stroke: #A80036; stroke-width: 1.5;" width="148" x="416" y="414.876"/><text fill="#000000" font-family="sans-serif" font-size="12" lengthAdjust="spacingAndGlyphs" textLength="128" x="426" y="436.9404">init all players board</text><rect fill="#FEFECE" filter="url(#f1aiu1qknz0krf)" height="34.584" rx="12.5" ry="12.5" style="stroke: #A80036; stroke-width: 1.5;" width="115" x="280.5" y="414.876"/><text fill="#000000" font-family="sans-serif" font-size="12" lengthAdjust="spacingAndGlyphs" textLength="95" x="290.5" y="436.9404">init CenterArea</text><rect fill="#FEFECE" filter="url(#f1aiu1qknz0krf)" height="34.584" rx="12.5" ry="12.5" style="stroke: #A80036; stroke-width: 1.5;" width="78" x="182" y="414.876"/><text fill="#000000" font-family="sans-serif" font-size="12" lengthAdjust="spacingAndGlyphs" textLength="58" x="192" y="436.9404">init Trash</text><rect fill="#FEFECE" filter="url(#f1aiu1qknz0krf)" height="34.584" rx="12.5" ry="12.5" style="stroke: #A80036; stroke-width: 1.5;" width="100" x="62" y="414.876"/><text fill="#000000" font-family="sans-serif" font-size="12" lengthAdjust="spacingAndGlyphs" textLength="80" x="72" y="436.9404">init Factories</text><!--MD5=[799573c868ccded9231f44ecaffdfc21]
link start to load GameConfiguration--><path d="M338,101.986 C338,110.886 338,124.776 338,136.546 " fill="none" id="start-&gt;load GameConfiguration" style="stroke: #A80036; stroke-width: 1.0;"/><polygon fill="#A80036" points="338,141.776,342,132.776,338,136.776,334,132.776,338,141.776" style="stroke: #A80036; stroke-width: 1.0;"/><!--MD5=[5aee935ae2db19f11de42864a186b7e1]
link load GameConfiguration to createG--><path d="M338,176.936 C338,187.136 338,200.326 338,211.386 " fill="none" id="load GameConfiguration-&gt;createG" style="stroke: #A80036; stroke-width: 1.0;"/><polygon fill="#A80036" points="338,216.626,342,207.626,338,211.626,334,207.626,338,216.626" style="stroke: #A80036; stroke-width: 1.0;"/><!--MD5=[09457d98ad5efb55f0c4c0b2ba63d52b]
link createG to initGB--><path d="M338,251.926 C338,270.816 338,301.776 338,322.606 " fill="none" id="createG-&gt;initGB" style="stroke: #A80036; stroke-width: 1.0;"/><polygon fill="#A80036" points="338,327.666,342,318.666,338,322.666,334,318.666,338,327.666" style="stroke: #A80036; stroke-width: 1.0;"/><!--MD5=[1b27104c9209ada6ea32d7bbb72ad553]
link initGB to init Bag--><path d="M396.19,347.056 C456.11,348.696 544.73,354.016 574,370.876 C589.47,379.786 601.01,396.576 608.38,410.206 " fill="none" id="initGB-&gt;init Bag" style="stroke: #A80036; stroke-width: 1.0;"/><polygon fill="#A80036" points="610.72,414.696,610.0967,404.8669,608.4042,410.2646,603.0065,408.5721,610.72,414.696" style="stroke: #A80036; stroke-width: 1.0;"/><!--MD5=[a6c11869d4ea23572463ee0e3332e560]
link initGB to init all players board--><path d="M388.81,362.906 C394.71,365.346 400.56,368.006 406,370.876 C427.69,382.306 450.12,398.736 466.34,411.596 " fill="none" id="initGB-&gt;init all players board" style="stroke: #A80036; stroke-width: 1.0;"/><polygon fill="#A80036" points="470.33,414.776,465.7776,406.0424,466.4173,411.663,460.7967,412.3027,470.33,414.776" style="stroke: #A80036; stroke-width: 1.0;"/><!--MD5=[bc733e210dae9a7dc0b72119b883c793]
link initGB to init CenterArea--><path d="M338,363.166 C338,376.446 338,395.066 338,409.506 " fill="none" id="initGB-&gt;init CenterArea" style="stroke: #A80036; stroke-width: 1.0;"/><polygon fill="#A80036" points="338,414.616,342,405.616,338,409.616,334,405.616,338,414.616" style="stroke: #A80036; stroke-width: 1.0;"/><!--MD5=[d8b0e14cc1b07c96ffa9b82ec2298157]
link initGB to init Trash--><path d="M284.38,362.986 C279.68,365.326 275.15,367.946 271,370.876 C256.1,381.406 243.12,397.466 234.11,410.396 " fill="none" id="initGB-&gt;init Trash" style="stroke: #A80036; stroke-width: 1.0;"/><polygon fill="#A80036" points="231.21,414.646,239.576,409.4489,234.0196,410.51,232.9585,404.9536,231.21,414.646" style="stroke: #A80036; stroke-width: 1.0;"/><!--MD5=[954bd771927c84239ba8abe140bf12b8]
link initGB to init Factories--><path d="M279.97,351.036 C239.86,354.986 190.52,361.516 172,370.876 C153.69,380.126 137.62,397.106 126.72,410.726 " fill="none" id="initGB-&gt;init Factories" style="stroke: #A80036; stroke-width: 1.0;"/><polygon fill="#A80036" points="123.51,414.836,132.2068,410.2137,126.5915,410.8985,125.9068,405.2832,123.51,414.836" style="stroke: #A80036; stroke-width: 1.0;"/><!--MD5=[7b742e059d551f5938f21babd9926414]
@startuml
title Game initialization
partition App.main {
	(*) - -> "load GameConfiguration"
	- -> "create Game according to the GameConfiguration" as createG
}

partition Game {
	createG - ->"init GameBoard" as initGB
	
	partition Game.GameBoard {
		initGB - -> "init Bag"
		initGB - -> "init all players board"
		initGB - -> "init CenterArea"
		initGB - -> "init Trash"
		initGB - -> "init Factories"	
		}		
}
	
@enduml

PlantUML version 1.2019.12(Sun Nov 03 11:24:54 CET 2019)
(GPL source distribution)
Java Runtime: OpenJDK Runtime Environment
JVM: OpenJDK 64-Bit Server VM
Java Version: 10.0.2+13
Operating System: Linux
Default Encoding: UTF-8
Language: fr
Country: FR
--></g></svg>