<?xml version="1.0" encoding="UTF-8" standalone="no"?><svg xmlns="http://www.w3.org/2000/svg" xmlns:xlink="http://www.w3.org/1999/xlink" contentScriptType="application/ecmascript" contentStyleType="text/css" height="1024px" preserveAspectRatio="none" style="width:352px;height:1024px;" version="1.1" viewBox="0 0 352 1024" width="352px" zoomAndPan="magnify"><defs><filter height="300%" id="f1jzuv61slf6ar" width="300%" x="-1" y="-1"><feGaussianBlur result="blurOut" stdDeviation="2.0"/><feColorMatrix in="blurOut" result="blurOut2" type="matrix" values="0 0 0 0 0 0 0 0 0 0 0 0 0 0 0 0 0 0 .4 0"/><feOffset dx="4.0" dy="4.0" in="blurOut2" result="blurOut3"/><feBlend in="SourceGraphic" in2="blurOut3" mode="normal"/></filter></defs><g><text fill="#000000" font-family="sans-serif" font-size="18" lengthAdjust="spacingAndGlyphs" textLength="286" x="32" y="28.0967">Game creation and initialization</text><ellipse cx="175.5" cy="41.876" fill="#000000" filter="url(#f1jzuv61slf6ar)" rx="10" ry="10" style="stroke: none; stroke-width: 1.0;"/><rect fill="#FEFECE" filter="url(#f1jzuv61slf6ar)" height="34.584" rx="12.5" ry="12.5" style="stroke: #A80036; stroke-width: 1.5;" width="172" x="89.5" y="71.876"/><text fill="#000000" font-family="sans-serif" font-size="12" lengthAdjust="spacingAndGlyphs" textLength="152" x="99.5" y="93.9404">load GameConfiguration</text><rect fill="#FEFECE" filter="url(#f1jzuv61slf6ar)" height="34.584" rx="12.5" ry="12.5" style="stroke: #A80036; stroke-width: 1.5;" width="331" x="10" y="126.46"/><text fill="#000000" font-family="sans-serif" font-size="12" lengthAdjust="spacingAndGlyphs" textLength="311" x="20" y="148.5244">create Game according to the GameConfiguration</text><rect fill="#FFFFFF" filter="url(#f1jzuv61slf6ar)" height="395.9727" style="stroke: #000000; stroke-width: 2.0;" width="213" x="69" y="171.4834"/><path d="M210,172.4834 L210,181.498 L200,191.498 L69,191.498 " fill="none" style="stroke: #000000; stroke-width: 2.0;"/><text fill="#000000" font-family="sans-serif" font-size="14" lengthAdjust="spacingAndGlyphs" textLength="126" x="72" y="186.5586">Game initialization</text><rect fill="#FEFECE" filter="url(#f1jzuv61slf6ar)" height="34.584" rx="12.5" ry="12.5" style="stroke: #A80036; stroke-width: 1.5;" width="116" x="117.5" y="208.498"/><text fill="#000000" font-family="sans-serif" font-size="12" lengthAdjust="spacingAndGlyphs" textLength="96" x="127.5" y="230.5625">init GameBoard</text><rect fill="#FFFFFF" filter="url(#f1jzuv61slf6ar)" height="247.3506" style="stroke: #000000; stroke-width: 2.0;" width="193" x="79" y="253.5215"/><path d="M262,254.5215 L262,263.5361 L252,273.5361 L79,273.5361 " fill="none" style="stroke: #000000; stroke-width: 2.0;"/><text fill="#000000" font-family="sans-serif" font-size="14" lengthAdjust="spacingAndGlyphs" textLength="168" x="82" y="268.5967">GameBoard initialization</text><rect fill="#FEFECE" filter="url(#f1jzuv61slf6ar)" height="34.584" rx="12.5" ry="12.5" style="stroke: #A80036; stroke-width: 1.5;" width="67" x="142" y="290.5361"/><text fill="#000000" font-family="sans-serif" font-size="12" lengthAdjust="spacingAndGlyphs" textLength="47" x="152" y="312.6006">init Bag</text><rect fill="#FEFECE" filter="url(#f1jzuv61slf6ar)" height="34.584" rx="12.5" ry="12.5" style="stroke: #A80036; stroke-width: 1.5;" width="115" x="118" y="345.1201"/><text fill="#000000" font-family="sans-serif" font-size="12" lengthAdjust="spacingAndGlyphs" textLength="95" x="128" y="367.1846">init CenterArea</text><rect fill="#FEFECE" filter="url(#f1jzuv61slf6ar)" height="34.584" rx="12.5" ry="12.5" style="stroke: #A80036; stroke-width: 1.5;" width="78" x="136.5" y="399.7041"/><text fill="#000000" font-family="sans-serif" font-size="12" lengthAdjust="spacingAndGlyphs" textLength="58" x="146.5" y="421.7686">init Trash</text><rect fill="#FEFECE" filter="url(#f1jzuv61slf6ar)" height="34.584" rx="12.5" ry="12.5" style="stroke: #A80036; stroke-width: 1.5;" width="100" x="125.5" y="454.2881"/><text fill="#000000" font-family="sans-serif" font-size="12" lengthAdjust="spacingAndGlyphs" textLength="80" x="135.5" y="476.3525">init Factories</text><rect fill="#FEFECE" filter="url(#f1jzuv61slf6ar)" height="34.584" rx="12.5" ry="12.5" style="stroke: #A80036; stroke-width: 1.5;" width="107" x="122" y="520.8721"/><text fill="#000000" font-family="sans-serif" font-size="12" lengthAdjust="spacingAndGlyphs" textLength="87" x="132" y="542.9365">init all players</text><rect fill="#FFFFFF" filter="url(#f1jzuv61slf6ar)" height="341.3887" style="stroke: #000000; stroke-width: 2.0;" width="214" x="68.5" y="577.8955"/><path d="M210.5,578.8955 L210.5,587.9102 L200.5,597.9102 L68.5,597.9102 " fill="none" style="stroke: #000000; stroke-width: 2.0;"/><text fill="#000000" font-family="sans-serif" font-size="14" lengthAdjust="spacingAndGlyphs" textLength="127" x="71.5" y="592.9707">Player initialization</text><rect fill="#FEFECE" filter="url(#f1jzuv61slf6ar)" height="34.584" rx="12.5" ry="12.5" style="stroke: #A80036; stroke-width: 1.5;" width="123" x="114" y="614.9102"/><text fill="#000000" font-family="sans-serif" font-size="12" lengthAdjust="spacingAndGlyphs" textLength="103" x="124" y="636.9746">init player board</text><rect fill="#FFFFFF" filter="url(#f1jzuv61slf6ar)" height="192.7666" style="stroke: #000000; stroke-width: 2.0;" width="194" x="78.5" y="659.9336"/><path d="M262.5,660.9336 L262.5,669.9482 L252.5,679.9482 L78.5,679.9482 " fill="none" style="stroke: #000000; stroke-width: 2.0;"/><text fill="#000000" font-family="sans-serif" font-size="14" lengthAdjust="spacingAndGlyphs" textLength="169" x="81.5" y="675.0088">PlayerBoard initialization</text><rect fill="#FEFECE" filter="url(#f1jzuv61slf6ar)" height="34.584" rx="12.5" ry="12.5" style="stroke: #A80036; stroke-width: 1.5;" width="70" x="140.5" y="696.9482"/><text fill="#000000" font-family="sans-serif" font-size="12" lengthAdjust="spacingAndGlyphs" textLength="50" x="150.5" y="719.0127">init Wall</text><rect fill="#FEFECE" filter="url(#f1jzuv61slf6ar)" height="34.584" rx="12.5" ry="12.5" style="stroke: #A80036; stroke-width: 1.5;" width="74" x="138.5" y="751.5322"/><text fill="#000000" font-family="sans-serif" font-size="12" lengthAdjust="spacingAndGlyphs" textLength="54" x="148.5" y="773.5967">init Floor</text><rect fill="#FEFECE" filter="url(#f1jzuv61slf6ar)" height="34.584" rx="12.5" ry="12.5" style="stroke: #A80036; stroke-width: 1.5;" width="111" x="120" y="806.1162"/><text fill="#000000" font-family="sans-serif" font-size="12" lengthAdjust="spacingAndGlyphs" textLength="91" x="130" y="828.1807">init PatterArea</text><rect fill="#FEFECE" filter="url(#f1jzuv61slf6ar)" height="34.584" rx="12.5" ry="12.5" style="stroke: #A80036; stroke-width: 1.5;" width="68" x="141.5" y="872.7002"/><text fill="#000000" font-family="sans-serif" font-size="12" lengthAdjust="spacingAndGlyphs" textLength="48" x="151.5" y="894.7646">init stat</text><rect fill="#FEFECE" filter="url(#f1jzuv61slf6ar)" height="34.584" rx="12.5" ry="12.5" style="stroke: #A80036; stroke-width: 1.5;" width="89" x="131" y="939.2842"/><text fill="#000000" font-family="sans-serif" font-size="12" lengthAdjust="spacingAndGlyphs" textLength="69" x="141" y="961.3486">start game</text><ellipse cx="175.5" cy="1003.8682" fill="#FFFFFF" filter="url(#f1jzuv61slf6ar)" rx="10" ry="10" style="stroke: #000000; stroke-width: 1.5;"/><line style="stroke: #000000; stroke-width: 2.5;" x1="169.3128" x2="181.6872" y1="997.681" y2="1010.0553"/><line style="stroke: #000000; stroke-width: 2.5;" x1="181.6872" x2="169.3128" y1="997.681" y2="1010.0553"/><line style="stroke: #A80036; stroke-width: 1.5;" x1="175.5" x2="175.5" y1="51.876" y2="71.876"/><polygon fill="#A80036" points="171.5,61.876,175.5,71.876,179.5,61.876,175.5,65.876" style="stroke: #A80036; stroke-width: 1.0;"/><line style="stroke: #A80036; stroke-width: 1.5;" x1="175.5" x2="175.5" y1="106.46" y2="126.46"/><polygon fill="#A80036" points="171.5,116.46,175.5,126.46,179.5,116.46,175.5,120.46" style="stroke: #A80036; stroke-width: 1.0;"/><line style="stroke: #A80036; stroke-width: 1.5;" x1="175.5" x2="175.5" y1="325.1201" y2="345.1201"/><polygon fill="#A80036" points="171.5,335.1201,175.5,345.1201,179.5,335.1201,175.5,339.1201" style="stroke: #A80036; stroke-width: 1.0;"/><line style="stroke: #A80036; stroke-width: 1.5;" x1="175.5" x2="175.5" y1="379.7041" y2="399.7041"/><polygon fill="#A80036" points="171.5,389.7041,175.5,399.7041,179.5,389.7041,175.5,393.7041" style="stroke: #A80036; stroke-width: 1.0;"/><line style="stroke: #A80036; stroke-width: 1.5;" x1="175.5" x2="175.5" y1="434.2881" y2="454.2881"/><polygon fill="#A80036" points="171.5,444.2881,175.5,454.2881,179.5,444.2881,175.5,448.2881" style="stroke: #A80036; stroke-width: 1.0;"/><line style="stroke: #A80036; stroke-width: 1.5;" x1="175.5" x2="175.5" y1="243.082" y2="290.5361"/><polygon fill="#A80036" points="171.5,280.5361,175.5,290.5361,179.5,280.5361,175.5,284.5361" style="stroke: #A80036; stroke-width: 1.0;"/><line style="stroke: #A80036; stroke-width: 1.5;" x1="175.5" x2="175.5" y1="488.8721" y2="520.8721"/><polygon fill="#A80036" points="171.5,510.8721,175.5,520.8721,179.5,510.8721,175.5,514.8721" style="stroke: #A80036; stroke-width: 1.0;"/><line style="stroke: #A80036; stroke-width: 1.5;" x1="175.5" x2="175.5" y1="161.0439" y2="208.498"/><polygon fill="#A80036" points="171.5,198.498,175.5,208.498,179.5,198.498,175.5,202.498" style="stroke: #A80036; stroke-width: 1.0;"/><line style="stroke: #A80036; stroke-width: 1.5;" x1="175.5" x2="175.5" y1="731.5322" y2="751.5322"/><polygon fill="#A80036" points="171.5,741.5322,175.5,751.5322,179.5,741.5322,175.5,745.5322" style="stroke: #A80036; stroke-width: 1.0;"/><line style="stroke: #A80036; stroke-width: 1.5;" x1="175.5" x2="175.5" y1="786.1162" y2="806.1162"/><polygon fill="#A80036" points="171.5,796.1162,175.5,806.1162,179.5,796.1162,175.5,800.1162" style="stroke: #A80036; stroke-width: 1.0;"/><line style="stroke: #A80036; stroke-width: 1.5;" x1="175.5" x2="175.5" y1="649.4941" y2="696.9482"/><polygon fill="#A80036" points="171.5,686.9482,175.5,696.9482,179.5,686.9482,175.5,690.9482" style="stroke: #A80036; stroke-width: 1.0;"/><line style="stroke: #A80036; stroke-width: 1.5;" x1="175.5" x2="175.5" y1="840.7002" y2="872.7002"/><polygon fill="#A80036" points="171.5,862.7002,175.5,872.7002,179.5,862.7002,175.5,866.7002" style="stroke: #A80036; stroke-width: 1.0;"/><line style="stroke: #A80036; stroke-width: 1.5;" x1="175.5" x2="175.5" y1="555.4561" y2="614.9102"/><polygon fill="#A80036" points="171.5,604.9102,175.5,614.9102,179.5,604.9102,175.5,608.9102" style="stroke: #A80036; stroke-width: 1.0;"/><line style="stroke: #A80036; stroke-width: 1.5;" x1="175.5" x2="175.5" y1="907.2842" y2="939.2842"/><polygon fill="#A80036" points="171.5,929.2842,175.5,939.2842,179.5,929.2842,175.5,933.2842" style="stroke: #A80036; stroke-width: 1.0;"/><line style="stroke: #A80036; stroke-width: 1.5;" x1="175.5" x2="175.5" y1="973.8682" y2="993.8682"/><polygon fill="#A80036" points="171.5,983.8682,175.5,993.8682,179.5,983.8682,175.5,987.8682" style="stroke: #A80036; stroke-width: 1.0;"/><!--MD5=[dcb36ec1b48dd71348371e5de5de3e4f]
@startuml
title Game creation and initialization

start
:load GameConfiguration;
:create Game according to the GameConfiguration;


partition "Game initialization " {
	:init GameBoard;
	partition "GameBoard initialization " {
		:init Bag;
		:init CenterArea;
		:init Trash;
		:init Factories;
	}
	:init all players;
}
		
partition "Player initialization " {
	:init player board;	
	partition "PlayerBoard initialization " { 
		:init Wall;
		:init Floor;
		:init PatterArea;
	}
	:init stat;		
}

:start game;
end		
@enduml

PlantUML version 1.2019.12(Sun Nov 03 11:24:54 CET 2019)
(GPL source distribution)
Java Runtime: OpenJDK Runtime Environment
JVM: OpenJDK 64-Bit Server VM
Java Version: 10.0.2+13
Operating System: Linux
Default Encoding: UTF-8
Language: fr
Country: FR
--></g></svg>