<?xml version="1.0" encoding="UTF-8" standalone="no"?><svg xmlns="http://www.w3.org/2000/svg" xmlns:xlink="http://www.w3.org/1999/xlink" contentScriptType="application/ecmascript" contentStyleType="text/css" height="930px" preserveAspectRatio="none" style="width:1558px;height:930px;" version="1.1" viewBox="0 0 1558 930" width="1558px" zoomAndPan="magnify"><defs><filter height="300%" id="f5rvcnf8ihk6e" width="300%" x="-1" y="-1"><feGaussianBlur result="blurOut" stdDeviation="2.0"/><feColorMatrix in="blurOut" result="blurOut2" type="matrix" values="0 0 0 0 0 0 0 0 0 0 0 0 0 0 0 0 0 0 .4 0"/><feOffset dx="4.0" dy="4.0" in="blurOut2" result="blurOut3"/><feBlend in="SourceGraphic" in2="blurOut3" mode="normal"/></filter></defs><g><!--MD5=[18e4d9ca2a6cdced7b66e5fef94ef6f6]
class Tile--><rect fill="#FEFECE" filter="url(#f5rvcnf8ihk6e)" height="74.7373" id="Tile" style="stroke: #A80036; stroke-width: 1.5;" width="139" x="649.5" y="28"/><ellipse cx="704.75" cy="44" fill="#A9DCDF" rx="11" ry="11" style="stroke: #A80036; stroke-width: 1.0;"/><path d="M710.3281,49.75 L708.1719,49.75 L706.8906,45.6563 L703.5469,45.6563 L702.2344,49.75 L700.0938,49.75 L704.1406,37.3438 L706.2813,37.3438 L710.3281,49.75 Z M706.2813,43.7813 L705.2031,40.4063 L704.1563,43.7813 L706.2813,43.7813 Z "/><text fill="#000000" font-family="sans-serif" font-size="12" font-style="italic" lengthAdjust="spacingAndGlyphs" textLength="20" x="725.25" y="48.7725">Tile</text><line style="stroke: #A80036; stroke-width: 1.5;" x1="650.5" x2="787.5" y1="60" y2="60"/><rect fill="none" height="6" style="stroke: #C82930; stroke-width: 1.0;" width="6" x="657.5" y="68"/><text fill="#000000" font-family="sans-serif" font-size="11" lengthAdjust="spacingAndGlyphs" textLength="99" x="669.5" y="75.0591">Area currentArea</text><line style="stroke: #A80036; stroke-width: 1.5;" x1="650.5" x2="787.5" y1="81.3687" y2="81.3687"/><ellipse cx="660.5" cy="92.3687" fill="#84BE84" rx="3" ry="3" style="stroke: #038048; stroke-width: 1.0;"/><text fill="#000000" font-family="sans-serif" font-size="11" lengthAdjust="spacingAndGlyphs" textLength="113" x="669.5" y="96.4277">moveTo(Area area)</text><!--MD5=[faede18e5bf815e6cae0fecd13e9236f]
class SpecialTile--><rect fill="#FEFECE" filter="url(#f5rvcnf8ihk6e)" height="61.3687" id="SpecialTile" style="stroke: #A80036; stroke-width: 1.5;" width="93" x="672.5" y="227"/><ellipse cx="687.5" cy="243" fill="#A9DCDF" rx="11" ry="11" style="stroke: #A80036; stroke-width: 1.0;"/><path d="M693.0781,248.75 L690.9219,248.75 L689.6406,244.6563 L686.2969,244.6563 L684.9844,248.75 L682.8438,248.75 L686.8906,236.3438 L689.0313,236.3438 L693.0781,248.75 Z M689.0313,242.7813 L687.9531,239.4063 L686.9063,242.7813 L689.0313,242.7813 Z "/><text fill="#000000" font-family="sans-serif" font-size="12" font-style="italic" lengthAdjust="spacingAndGlyphs" textLength="61" x="701.5" y="247.7725">SpecialTile</text><line style="stroke: #A80036; stroke-width: 1.5;" x1="673.5" x2="764.5" y1="259" y2="259"/><line style="stroke: #A80036; stroke-width: 1.5;" x1="673.5" x2="764.5" y1="267" y2="267"/><ellipse cx="683.5" cy="278" fill="#84BE84" rx="3" ry="3" style="stroke: #038048; stroke-width: 1.0;"/><text fill="#000000" font-family="sans-serif" font-size="11" lengthAdjust="spacingAndGlyphs" textLength="42" x="692.5" y="282.0591">effect()</text><!--MD5=[46edf5083db20512f82f390680a6443b]
class ColoredTile--><rect fill="#FEFECE" filter="url(#f5rvcnf8ihk6e)" height="74.7373" id="ColoredTile" style="stroke: #A80036; stroke-width: 1.5;" width="126" x="801" y="220"/><ellipse cx="826.8" cy="236" fill="#ADD1B2" rx="11" ry="11" style="stroke: #A80036; stroke-width: 1.0;"/><path d="M830.9563,241.5469 Q829.2688,242.7188 827.3313,242.7188 Q824.8938,242.7188 823.6125,241.0469 Q822.3469,239.375 822.3469,236.2969 Q822.3469,233.3438 823.5813,231.6094 Q824.8156,229.875 827.3313,229.875 Q828.2375,229.875 829.1125,230.1094 Q830.0031,230.3438 830.7688,230.8906 L830.0813,232.5625 Q828.6438,231.7656 827.3313,231.7656 Q825.9094,231.7656 825.1906,232.8281 Q824.4875,233.875 824.4875,236.2969 Q824.4875,240.8438 827.3313,240.8438 Q828.5969,240.8438 830.2844,239.8594 L830.9563,241.5469 Z "/><text fill="#000000" font-family="sans-serif" font-size="12" lengthAdjust="spacingAndGlyphs" textLength="70" x="843.2" y="240.7725">ColoredTile</text><line style="stroke: #A80036; stroke-width: 1.5;" x1="802" x2="926" y1="252" y2="252"/><rect fill="none" height="6" style="stroke: #C82930; stroke-width: 1.0;" width="6" x="809" y="260"/><text fill="#000000" font-family="sans-serif" font-size="11" lengthAdjust="spacingAndGlyphs" textLength="69" x="821" y="267.0591">Colors color</text><line style="stroke: #A80036; stroke-width: 1.5;" x1="802" x2="926" y1="273.3687" y2="273.3687"/><ellipse cx="812" cy="284.3687" fill="#84BE84" rx="3" ry="3" style="stroke: #038048; stroke-width: 1.0;"/><text fill="#000000" font-family="sans-serif" font-size="11" lengthAdjust="spacingAndGlyphs" textLength="100" x="821" y="288.4277">Colors getColor()</text><!--MD5=[a3a6a8f48d9fabcd0fdae0b0c9a62d71]
class FirstTile--><rect fill="#FEFECE" filter="url(#f5rvcnf8ihk6e)" height="48" id="FirstTile" style="stroke: #A80036; stroke-width: 1.5;" width="80" x="799" y="425.5"/><ellipse cx="814" cy="441.5" fill="#ADD1B2" rx="11" ry="11" style="stroke: #A80036; stroke-width: 1.0;"/><path d="M818.1563,447.0469 Q816.4688,448.2188 814.5313,448.2188 Q812.0938,448.2188 810.8125,446.5469 Q809.5469,444.875 809.5469,441.7969 Q809.5469,438.8438 810.7813,437.1094 Q812.0156,435.375 814.5313,435.375 Q815.4375,435.375 816.3125,435.6094 Q817.2031,435.8438 817.9688,436.3906 L817.2813,438.0625 Q815.8438,437.2656 814.5313,437.2656 Q813.1094,437.2656 812.3906,438.3281 Q811.6875,439.375 811.6875,441.7969 Q811.6875,446.3438 814.5313,446.3438 Q815.7969,446.3438 817.4844,445.3594 L818.1563,447.0469 Z "/><text fill="#000000" font-family="sans-serif" font-size="12" lengthAdjust="spacingAndGlyphs" textLength="48" x="828" y="446.2725">FirstTile</text><line style="stroke: #A80036; stroke-width: 1.5;" x1="800" x2="878" y1="457.5" y2="457.5"/><line style="stroke: #A80036; stroke-width: 1.5;" x1="800" x2="878" y1="465.5" y2="465.5"/><!--MD5=[c4df9b95f6f4e4e1c32bb5a44abd175a]
class Colors--><rect fill="#FEFECE" filter="url(#f5rvcnf8ihk6e)" height="114.8433" id="Colors" style="stroke: #A80036; stroke-width: 1.5;" width="72" x="828" y="8"/><ellipse cx="843" cy="24" fill="#EB937F" rx="11" ry="11" style="stroke: #A80036; stroke-width: 1.0;"/><path d="M846.9375,30.5 L840.125,30.5 L840.125,18.0938 L846.875,18.0938 L846.875,19.9688 L842.1719,19.9688 L842.1719,22.9219 L846.7031,22.9219 L846.7031,24.7813 L842.1719,24.7813 L842.1719,28.625 L846.9375,28.625 L846.9375,30.5 Z "/><text fill="#000000" font-family="sans-serif" font-size="12" lengthAdjust="spacingAndGlyphs" textLength="40" x="857" y="28.7725">Colors</text><line style="stroke: #A80036; stroke-width: 1.5;" x1="829" x2="899" y1="40" y2="40"/><text fill="#000000" font-family="sans-serif" font-size="11" lengthAdjust="spacingAndGlyphs" textLength="29" x="834" y="55.0591">BLUE</text><text fill="#000000" font-family="sans-serif" font-size="11" lengthAdjust="spacingAndGlyphs" textLength="24" x="834" y="68.4277">RED</text><text fill="#000000" font-family="sans-serif" font-size="11" lengthAdjust="spacingAndGlyphs" textLength="39" x="834" y="81.7964">GREEN</text><text fill="#000000" font-family="sans-serif" font-size="11" lengthAdjust="spacingAndGlyphs" textLength="39" x="834" y="95.165">BLACK</text><text fill="#000000" font-family="sans-serif" font-size="11" lengthAdjust="spacingAndGlyphs" textLength="46" x="834" y="108.5337">YELLOW</text><line style="stroke: #A80036; stroke-width: 1.5;" x1="829" x2="899" y1="114.8433" y2="114.8433"/><!--MD5=[7cfcec95ce8c7b3cc21f2a5540b61e10]
class Area--><rect fill="#FEFECE" filter="url(#f5rvcnf8ihk6e)" height="61.3687" id="Area" style="stroke: #A80036; stroke-width: 1.5;" width="147" x="410.5" y="35"/><ellipse cx="466.25" cy="51" fill="#A9DCDF" rx="11" ry="11" style="stroke: #A80036; stroke-width: 1.0;"/><path d="M471.8281,56.75 L469.6719,56.75 L468.3906,52.6563 L465.0469,52.6563 L463.7344,56.75 L461.5938,56.75 L465.6406,44.3438 L467.7813,44.3438 L471.8281,56.75 Z M467.7813,50.7813 L466.7031,47.4063 L465.6563,50.7813 L467.7813,50.7813 Z "/><text fill="#000000" font-family="sans-serif" font-size="12" font-style="italic" lengthAdjust="spacingAndGlyphs" textLength="27" x="486.75" y="55.7725">Area</text><line style="stroke: #A80036; stroke-width: 1.5;" x1="411.5" x2="556.5" y1="67" y2="67"/><rect fill="none" height="6" style="stroke: #C82930; stroke-width: 1.0;" width="6" x="418.5" y="75"/><text fill="#000000" font-family="sans-serif" font-size="11" lengthAdjust="spacingAndGlyphs" textLength="121" x="430.5" y="82.0591">Collection&lt;Tile&gt; tiles</text><line style="stroke: #A80036; stroke-width: 1.5;" x1="411.5" x2="556.5" y1="88.3687" y2="88.3687"/><!--MD5=[4d89bfe5c233b200cc98413e0507cc6e]
class OffSideArea--><rect fill="#FEFECE" filter="url(#f5rvcnf8ihk6e)" height="48" id="OffSideArea" style="stroke: #A80036; stroke-width: 1.5;" width="101" x="80.5" y="233.5"/><ellipse cx="95.5" cy="249.5" fill="#A9DCDF" rx="11" ry="11" style="stroke: #A80036; stroke-width: 1.0;"/><path d="M101.0781,255.25 L98.9219,255.25 L97.6406,251.1563 L94.2969,251.1563 L92.9844,255.25 L90.8438,255.25 L94.8906,242.8438 L97.0313,242.8438 L101.0781,255.25 Z M97.0313,249.2813 L95.9531,245.9063 L94.9063,249.2813 L97.0313,249.2813 Z "/><text fill="#000000" font-family="sans-serif" font-size="12" font-style="italic" lengthAdjust="spacingAndGlyphs" textLength="69" x="109.5" y="254.2725">OffSideArea</text><line style="stroke: #A80036; stroke-width: 1.5;" x1="81.5" x2="180.5" y1="265.5" y2="265.5"/><line style="stroke: #A80036; stroke-width: 1.5;" x1="81.5" x2="180.5" y1="273.5" y2="273.5"/><!--MD5=[ce71e8b4822a13f5ea72e94958aa0250]
class Bag--><rect fill="#FEFECE" filter="url(#f5rvcnf8ihk6e)" height="48" id="Bag" style="stroke: #A80036; stroke-width: 1.5;" width="56" x="6" y="425.5"/><ellipse cx="21" cy="441.5" fill="#ADD1B2" rx="11" ry="11" style="stroke: #A80036; stroke-width: 1.0;"/><path d="M25.1563,447.0469 Q23.4688,448.2188 21.5313,448.2188 Q19.0938,448.2188 17.8125,446.5469 Q16.5469,444.875 16.5469,441.7969 Q16.5469,438.8438 17.7813,437.1094 Q19.0156,435.375 21.5313,435.375 Q22.4375,435.375 23.3125,435.6094 Q24.2031,435.8438 24.9688,436.3906 L24.2813,438.0625 Q22.8438,437.2656 21.5313,437.2656 Q20.1094,437.2656 19.3906,438.3281 Q18.6875,439.375 18.6875,441.7969 Q18.6875,446.3438 21.5313,446.3438 Q22.7969,446.3438 24.4844,445.3594 L25.1563,447.0469 Z "/><text fill="#000000" font-family="sans-serif" font-size="12" lengthAdjust="spacingAndGlyphs" textLength="24" x="35" y="446.2725">Bag</text><line style="stroke: #A80036; stroke-width: 1.5;" x1="7" x2="61" y1="457.5" y2="457.5"/><line style="stroke: #A80036; stroke-width: 1.5;" x1="7" x2="61" y1="465.5" y2="465.5"/><!--MD5=[0eb5d8a6db90dd1dab89cb995fe690b7]
class Trash--><rect fill="#FEFECE" filter="url(#f5rvcnf8ihk6e)" height="48" id="Trash" style="stroke: #A80036; stroke-width: 1.5;" width="67" x="97.5" y="425.5"/><ellipse cx="112.5" cy="441.5" fill="#ADD1B2" rx="11" ry="11" style="stroke: #A80036; stroke-width: 1.0;"/><path d="M116.6563,447.0469 Q114.9688,448.2188 113.0313,448.2188 Q110.5938,448.2188 109.3125,446.5469 Q108.0469,444.875 108.0469,441.7969 Q108.0469,438.8438 109.2813,437.1094 Q110.5156,435.375 113.0313,435.375 Q113.9375,435.375 114.8125,435.6094 Q115.7031,435.8438 116.4688,436.3906 L115.7813,438.0625 Q114.3438,437.2656 113.0313,437.2656 Q111.6094,437.2656 110.8906,438.3281 Q110.1875,439.375 110.1875,441.7969 Q110.1875,446.3438 113.0313,446.3438 Q114.2969,446.3438 115.9844,445.3594 L116.6563,447.0469 Z "/><text fill="#000000" font-family="sans-serif" font-size="12" lengthAdjust="spacingAndGlyphs" textLength="35" x="126.5" y="446.2725">Trash</text><line style="stroke: #A80036; stroke-width: 1.5;" x1="98.5" x2="163.5" y1="457.5" y2="457.5"/><line style="stroke: #A80036; stroke-width: 1.5;" x1="98.5" x2="163.5" y1="465.5" y2="465.5"/><!--MD5=[f11ab406550ac83deb36d00823dd7c91]
class CommonArea--><rect fill="#FEFECE" filter="url(#f5rvcnf8ihk6e)" height="48" id="CommonArea" style="stroke: #A80036; stroke-width: 1.5;" width="113" x="327.5" y="233.5"/><ellipse cx="342.5" cy="249.5" fill="#A9DCDF" rx="11" ry="11" style="stroke: #A80036; stroke-width: 1.0;"/><path d="M348.0781,255.25 L345.9219,255.25 L344.6406,251.1563 L341.2969,251.1563 L339.9844,255.25 L337.8438,255.25 L341.8906,242.8438 L344.0313,242.8438 L348.0781,255.25 Z M344.0313,249.2813 L342.9531,245.9063 L341.9063,249.2813 L344.0313,249.2813 Z "/><text fill="#000000" font-family="sans-serif" font-size="12" font-style="italic" lengthAdjust="spacingAndGlyphs" textLength="81" x="356.5" y="254.2725">CommonArea</text><line style="stroke: #A80036; stroke-width: 1.5;" x1="328.5" x2="439.5" y1="265.5" y2="265.5"/><line style="stroke: #A80036; stroke-width: 1.5;" x1="328.5" x2="439.5" y1="273.5" y2="273.5"/><!--MD5=[a4d8847a6582916cb8f312aacb37cade]
class CenterArea--><rect fill="#FEFECE" filter="url(#f5rvcnf8ihk6e)" height="48" id="CenterArea" style="stroke: #A80036; stroke-width: 1.5;" width="104" x="200" y="425.5"/><ellipse cx="215" cy="441.5" fill="#ADD1B2" rx="11" ry="11" style="stroke: #A80036; stroke-width: 1.0;"/><path d="M219.1563,447.0469 Q217.4688,448.2188 215.5313,448.2188 Q213.0938,448.2188 211.8125,446.5469 Q210.5469,444.875 210.5469,441.7969 Q210.5469,438.8438 211.7813,437.1094 Q213.0156,435.375 215.5313,435.375 Q216.4375,435.375 217.3125,435.6094 Q218.2031,435.8438 218.9688,436.3906 L218.2813,438.0625 Q216.8438,437.2656 215.5313,437.2656 Q214.1094,437.2656 213.3906,438.3281 Q212.6875,439.375 212.6875,441.7969 Q212.6875,446.3438 215.5313,446.3438 Q216.7969,446.3438 218.4844,445.3594 L219.1563,447.0469 Z "/><text fill="#000000" font-family="sans-serif" font-size="12" lengthAdjust="spacingAndGlyphs" textLength="72" x="229" y="446.2725">CenterArea</text><line style="stroke: #A80036; stroke-width: 1.5;" x1="201" x2="303" y1="457.5" y2="457.5"/><line style="stroke: #A80036; stroke-width: 1.5;" x1="201" x2="303" y1="465.5" y2="465.5"/><!--MD5=[138b99e9ed32b29ca5d5859af32c5610]
class Factories--><rect fill="#FEFECE" filter="url(#f5rvcnf8ihk6e)" height="48" id="Factories" style="stroke: #A80036; stroke-width: 1.5;" width="89" x="339.5" y="425.5"/><ellipse cx="354.5" cy="441.5" fill="#ADD1B2" rx="11" ry="11" style="stroke: #A80036; stroke-width: 1.0;"/><path d="M358.6563,447.0469 Q356.9688,448.2188 355.0313,448.2188 Q352.5938,448.2188 351.3125,446.5469 Q350.0469,444.875 350.0469,441.7969 Q350.0469,438.8438 351.2813,437.1094 Q352.5156,435.375 355.0313,435.375 Q355.9375,435.375 356.8125,435.6094 Q357.7031,435.8438 358.4688,436.3906 L357.7813,438.0625 Q356.3438,437.2656 355.0313,437.2656 Q353.6094,437.2656 352.8906,438.3281 Q352.1875,439.375 352.1875,441.7969 Q352.1875,446.3438 355.0313,446.3438 Q356.2969,446.3438 357.9844,445.3594 L358.6563,447.0469 Z "/><text fill="#000000" font-family="sans-serif" font-size="12" lengthAdjust="spacingAndGlyphs" textLength="57" x="368.5" y="446.2725">Factories</text><line style="stroke: #A80036; stroke-width: 1.5;" x1="340.5" x2="427.5" y1="457.5" y2="457.5"/><line style="stroke: #A80036; stroke-width: 1.5;" x1="340.5" x2="427.5" y1="465.5" y2="465.5"/><!--MD5=[54eaddc8f455ecd6529ee47fa50b5da3]
class PlayerArea--><rect fill="#FEFECE" filter="url(#f5rvcnf8ihk6e)" height="48" id="PlayerArea" style="stroke: #A80036; stroke-width: 1.5;" width="95" x="508.5" y="233.5"/><ellipse cx="523.5" cy="249.5" fill="#A9DCDF" rx="11" ry="11" style="stroke: #A80036; stroke-width: 1.0;"/><path d="M529.0781,255.25 L526.9219,255.25 L525.6406,251.1563 L522.2969,251.1563 L520.9844,255.25 L518.8438,255.25 L522.8906,242.8438 L525.0313,242.8438 L529.0781,255.25 Z M525.0313,249.2813 L523.9531,245.9063 L522.9063,249.2813 L525.0313,249.2813 Z "/><text fill="#000000" font-family="sans-serif" font-size="12" font-style="italic" lengthAdjust="spacingAndGlyphs" textLength="63" x="537.5" y="254.2725">PlayerArea</text><line style="stroke: #A80036; stroke-width: 1.5;" x1="509.5" x2="602.5" y1="265.5" y2="265.5"/><line style="stroke: #A80036; stroke-width: 1.5;" x1="509.5" x2="602.5" y1="273.5" y2="273.5"/><!--MD5=[08dfe6c59ed9ecb4018cfd2b80128be4]
class Wall--><rect fill="#FEFECE" filter="url(#f5rvcnf8ihk6e)" height="48" id="Wall" style="stroke: #A80036; stroke-width: 1.5;" width="59" x="463.5" y="425.5"/><ellipse cx="478.5" cy="441.5" fill="#ADD1B2" rx="11" ry="11" style="stroke: #A80036; stroke-width: 1.0;"/><path d="M482.6563,447.0469 Q480.9688,448.2188 479.0313,448.2188 Q476.5938,448.2188 475.3125,446.5469 Q474.0469,444.875 474.0469,441.7969 Q474.0469,438.8438 475.2813,437.1094 Q476.5156,435.375 479.0313,435.375 Q479.9375,435.375 480.8125,435.6094 Q481.7031,435.8438 482.4688,436.3906 L481.7813,438.0625 Q480.3438,437.2656 479.0313,437.2656 Q477.6094,437.2656 476.8906,438.3281 Q476.1875,439.375 476.1875,441.7969 Q476.1875,446.3438 479.0313,446.3438 Q480.2969,446.3438 481.9844,445.3594 L482.6563,447.0469 Z "/><text fill="#000000" font-family="sans-serif" font-size="12" lengthAdjust="spacingAndGlyphs" textLength="27" x="492.5" y="446.2725">Wall</text><line style="stroke: #A80036; stroke-width: 1.5;" x1="464.5" x2="521.5" y1="457.5" y2="457.5"/><line style="stroke: #A80036; stroke-width: 1.5;" x1="464.5" x2="521.5" y1="465.5" y2="465.5"/><!--MD5=[b098efa4dd65edfeebe973e4edec7c36]
class Floor--><rect fill="#FEFECE" filter="url(#f5rvcnf8ihk6e)" height="48" id="Floor" style="stroke: #A80036; stroke-width: 1.5;" width="63" x="557.5" y="425.5"/><ellipse cx="572.5" cy="441.5" fill="#ADD1B2" rx="11" ry="11" style="stroke: #A80036; stroke-width: 1.0;"/><path d="M576.6563,447.0469 Q574.9688,448.2188 573.0313,448.2188 Q570.5938,448.2188 569.3125,446.5469 Q568.0469,444.875 568.0469,441.7969 Q568.0469,438.8438 569.2813,437.1094 Q570.5156,435.375 573.0313,435.375 Q573.9375,435.375 574.8125,435.6094 Q575.7031,435.8438 576.4688,436.3906 L575.7813,438.0625 Q574.3438,437.2656 573.0313,437.2656 Q571.6094,437.2656 570.8906,438.3281 Q570.1875,439.375 570.1875,441.7969 Q570.1875,446.3438 573.0313,446.3438 Q574.2969,446.3438 575.9844,445.3594 L576.6563,447.0469 Z "/><text fill="#000000" font-family="sans-serif" font-size="12" lengthAdjust="spacingAndGlyphs" textLength="31" x="586.5" y="446.2725">Floor</text><line style="stroke: #A80036; stroke-width: 1.5;" x1="558.5" x2="619.5" y1="457.5" y2="457.5"/><line style="stroke: #A80036; stroke-width: 1.5;" x1="558.5" x2="619.5" y1="465.5" y2="465.5"/><!--MD5=[252f3dea6a02d7abaf4caf05610167f8]
class PatternArea--><rect fill="#FEFECE" filter="url(#f5rvcnf8ihk6e)" height="48" id="PatternArea" style="stroke: #A80036; stroke-width: 1.5;" width="108" x="656" y="425.5"/><ellipse cx="671" cy="441.5" fill="#ADD1B2" rx="11" ry="11" style="stroke: #A80036; stroke-width: 1.0;"/><path d="M675.1563,447.0469 Q673.4688,448.2188 671.5313,448.2188 Q669.0938,448.2188 667.8125,446.5469 Q666.5469,444.875 666.5469,441.7969 Q666.5469,438.8438 667.7813,437.1094 Q669.0156,435.375 671.5313,435.375 Q672.4375,435.375 673.3125,435.6094 Q674.2031,435.8438 674.9688,436.3906 L674.2813,438.0625 Q672.8438,437.2656 671.5313,437.2656 Q670.1094,437.2656 669.3906,438.3281 Q668.6875,439.375 668.6875,441.7969 Q668.6875,446.3438 671.5313,446.3438 Q672.7969,446.3438 674.4844,445.3594 L675.1563,447.0469 Z "/><text fill="#000000" font-family="sans-serif" font-size="12" lengthAdjust="spacingAndGlyphs" textLength="76" x="685" y="446.2725">PatternArea</text><line style="stroke: #A80036; stroke-width: 1.5;" x1="657" x2="763" y1="457.5" y2="457.5"/><line style="stroke: #A80036; stroke-width: 1.5;" x1="657" x2="763" y1="465.5" y2="465.5"/><!--MD5=[2cb47ba637a0d19583e6199456f6ad0b]
class Player--><rect fill="#FEFECE" filter="url(#f5rvcnf8ihk6e)" height="61.3687" id="Player" style="stroke: #A80036; stroke-width: 1.5;" width="68" x="1165" y="749"/><ellipse cx="1180" cy="765" fill="#A9DCDF" rx="11" ry="11" style="stroke: #A80036; stroke-width: 1.0;"/><path d="M1185.5781,770.75 L1183.4219,770.75 L1182.1406,766.6563 L1178.7969,766.6563 L1177.4844,770.75 L1175.3438,770.75 L1179.3906,758.3438 L1181.5313,758.3438 L1185.5781,770.75 Z M1181.5313,764.7813 L1180.4531,761.4063 L1179.4063,764.7813 L1181.5313,764.7813 Z "/><text fill="#000000" font-family="sans-serif" font-size="12" font-style="italic" lengthAdjust="spacingAndGlyphs" textLength="36" x="1194" y="769.7725">Player</text><line style="stroke: #A80036; stroke-width: 1.5;" x1="1166" x2="1232" y1="781" y2="781"/><text fill="#000000" font-family="sans-serif" font-size="11" lengthAdjust="spacingAndGlyphs" textLength="49" x="1171" y="796.0591">int score</text><line style="stroke: #A80036; stroke-width: 1.5;" x1="1166" x2="1232" y1="802.3687" y2="802.3687"/><!--MD5=[c9258217e9bf77cef15858c9efd4d2a2]
class HumanPlayer--><rect fill="#FEFECE" filter="url(#f5rvcnf8ihk6e)" height="48" id="HumanPlayer" style="stroke: #A80036; stroke-width: 1.5;" width="115" x="1074.5" y="871"/><ellipse cx="1089.5" cy="887" fill="#ADD1B2" rx="11" ry="11" style="stroke: #A80036; stroke-width: 1.0;"/><path d="M1093.6563,892.5469 Q1091.9688,893.7188 1090.0313,893.7188 Q1087.5938,893.7188 1086.3125,892.0469 Q1085.0469,890.375 1085.0469,887.2969 Q1085.0469,884.3438 1086.2813,882.6094 Q1087.5156,880.875 1090.0313,880.875 Q1090.9375,880.875 1091.8125,881.1094 Q1092.7031,881.3438 1093.4688,881.8906 L1092.7813,883.5625 Q1091.3438,882.7656 1090.0313,882.7656 Q1088.6094,882.7656 1087.8906,883.8281 Q1087.1875,884.875 1087.1875,887.2969 Q1087.1875,891.8438 1090.0313,891.8438 Q1091.2969,891.8438 1092.9844,890.8594 L1093.6563,892.5469 Z "/><text fill="#000000" font-family="sans-serif" font-size="12" lengthAdjust="spacingAndGlyphs" textLength="83" x="1103.5" y="891.7725">HumanPlayer</text><line style="stroke: #A80036; stroke-width: 1.5;" x1="1075.5" x2="1188.5" y1="903" y2="903"/><line style="stroke: #A80036; stroke-width: 1.5;" x1="1075.5" x2="1188.5" y1="911" y2="911"/><!--MD5=[5c13a6b9b37a04a5203ceba06b20c3e3]
class AIPlayer--><rect fill="#FEFECE" filter="url(#f5rvcnf8ihk6e)" height="48" id="AIPlayer" style="stroke: #A80036; stroke-width: 1.5;" width="84" x="1225" y="871"/><ellipse cx="1240" cy="887" fill="#ADD1B2" rx="11" ry="11" style="stroke: #A80036; stroke-width: 1.0;"/><path d="M1244.1563,892.5469 Q1242.4688,893.7188 1240.5313,893.7188 Q1238.0938,893.7188 1236.8125,892.0469 Q1235.5469,890.375 1235.5469,887.2969 Q1235.5469,884.3438 1236.7813,882.6094 Q1238.0156,880.875 1240.5313,880.875 Q1241.4375,880.875 1242.3125,881.1094 Q1243.2031,881.3438 1243.9688,881.8906 L1243.2813,883.5625 Q1241.8438,882.7656 1240.5313,882.7656 Q1239.1094,882.7656 1238.3906,883.8281 Q1237.6875,884.875 1237.6875,887.2969 Q1237.6875,891.8438 1240.5313,891.8438 Q1241.7969,891.8438 1243.4844,890.8594 L1244.1563,892.5469 Z "/><text fill="#000000" font-family="sans-serif" font-size="12" lengthAdjust="spacingAndGlyphs" textLength="52" x="1254" y="891.7725">AIPlayer</text><line style="stroke: #A80036; stroke-width: 1.5;" x1="1226" x2="1308" y1="903" y2="903"/><line style="stroke: #A80036; stroke-width: 1.5;" x1="1226" x2="1308" y1="911" y2="911"/><!--MD5=[98fb33d713b629e45513ee500a3a5b9f]
class PlayerBoard--><rect fill="#FEFECE" filter="url(#f5rvcnf8ihk6e)" height="88.106" id="PlayerBoard" style="stroke: #A80036; stroke-width: 1.5;" width="202" x="1098" y="584"/><ellipse cx="1156.75" cy="600" fill="#ADD1B2" rx="11" ry="11" style="stroke: #A80036; stroke-width: 1.0;"/><path d="M1160.9063,605.5469 Q1159.2188,606.7188 1157.2813,606.7188 Q1154.8438,606.7188 1153.5625,605.0469 Q1152.2969,603.375 1152.2969,600.2969 Q1152.2969,597.3438 1153.5313,595.6094 Q1154.7656,593.875 1157.2813,593.875 Q1158.1875,593.875 1159.0625,594.1094 Q1159.9531,594.3438 1160.7188,594.8906 L1160.0313,596.5625 Q1158.5938,595.7656 1157.2813,595.7656 Q1155.8594,595.7656 1155.1406,596.8281 Q1154.4375,597.875 1154.4375,600.2969 Q1154.4375,604.8438 1157.2813,604.8438 Q1158.5469,604.8438 1160.2344,603.8594 L1160.9063,605.5469 Z "/><text fill="#000000" font-family="sans-serif" font-size="12" lengthAdjust="spacingAndGlyphs" textLength="76" x="1177.25" y="604.7725">PlayerBoard</text><line style="stroke: #A80036; stroke-width: 1.5;" x1="1099" x2="1299" y1="616" y2="616"/><rect fill="none" height="6" style="stroke: #C82930; stroke-width: 1.0;" width="6" x="1106" y="624"/><text fill="#000000" font-family="sans-serif" font-size="11" lengthAdjust="spacingAndGlyphs" textLength="88" x="1118" y="631.0591">Wall playerWall</text><rect fill="none" height="6" style="stroke: #C82930; stroke-width: 1.0;" width="6" x="1106" y="637.3687"/><text fill="#000000" font-family="sans-serif" font-size="11" lengthAdjust="spacingAndGlyphs" textLength="96" x="1118" y="644.4277">Floor playerFloor</text><rect fill="none" height="6" style="stroke: #C82930; stroke-width: 1.0;" width="6" x="1106" y="650.7373"/><text fill="#000000" font-family="sans-serif" font-size="11" lengthAdjust="spacingAndGlyphs" textLength="176" x="1118" y="657.7964">PatternArea playerPatternArea</text><line style="stroke: #A80036; stroke-width: 1.5;" x1="1099" x2="1299" y1="664.106" y2="664.106"/><!--MD5=[9b7eb76f801c309757ef5968cb2349d9]
class Configuration--><rect fill="#FEFECE" filter="url(#f5rvcnf8ihk6e)" height="74.7373" id="Configuration" style="stroke: #A80036; stroke-width: 1.5;" width="117" x="962.5" y="220"/><ellipse cx="977.5" cy="236" fill="#ADD1B2" rx="11" ry="11" style="stroke: #A80036; stroke-width: 1.0;"/><path d="M981.6563,241.5469 Q979.9688,242.7188 978.0313,242.7188 Q975.5938,242.7188 974.3125,241.0469 Q973.0469,239.375 973.0469,236.2969 Q973.0469,233.3438 974.2813,231.6094 Q975.5156,229.875 978.0313,229.875 Q978.9375,229.875 979.8125,230.1094 Q980.7031,230.3438 981.4688,230.8906 L980.7813,232.5625 Q979.3438,231.7656 978.0313,231.7656 Q976.6094,231.7656 975.8906,232.8281 Q975.1875,233.875 975.1875,236.2969 Q975.1875,240.8438 978.0313,240.8438 Q979.2969,240.8438 980.9844,239.8594 L981.6563,241.5469 Z "/><text fill="#000000" font-family="sans-serif" font-size="12" lengthAdjust="spacingAndGlyphs" textLength="85" x="991.5" y="240.7725">Configuration</text><line style="stroke: #A80036; stroke-width: 1.5;" x1="963.5" x2="1078.5" y1="252" y2="252"/><text fill="#000000" font-family="sans-serif" font-size="11" lengthAdjust="spacingAndGlyphs" textLength="87" x="968.5" y="267.0591">int nbOfPlayers</text><text fill="#000000" font-family="sans-serif" font-size="11" lengthAdjust="spacingAndGlyphs" textLength="63" x="968.5" y="280.4277">AIDifficulty</text><line style="stroke: #A80036; stroke-width: 1.5;" x1="963.5" x2="1078.5" y1="286.7373" y2="286.7373"/><!--MD5=[b6dcce5e5ef3c84b0b048d11301373dd]
class Game--><rect fill="#FEFECE" filter="url(#f5rvcnf8ihk6e)" height="114.8433" id="Game" style="stroke: #A80036; stroke-width: 1.5;" width="240" x="1192" y="200"/><ellipse cx="1289.75" cy="216" fill="#ADD1B2" rx="11" ry="11" style="stroke: #A80036; stroke-width: 1.0;"/><path d="M1293.9063,221.5469 Q1292.2188,222.7188 1290.2813,222.7188 Q1287.8438,222.7188 1286.5625,221.0469 Q1285.2969,219.375 1285.2969,216.2969 Q1285.2969,213.3438 1286.5313,211.6094 Q1287.7656,209.875 1290.2813,209.875 Q1291.1875,209.875 1292.0625,210.1094 Q1292.9531,210.3438 1293.7188,210.8906 L1293.0313,212.5625 Q1291.5938,211.7656 1290.2813,211.7656 Q1288.8594,211.7656 1288.1406,212.8281 Q1287.4375,213.875 1287.4375,216.2969 Q1287.4375,220.8438 1290.2813,220.8438 Q1291.5469,220.8438 1293.2344,219.8594 L1293.9063,221.5469 Z "/><text fill="#000000" font-family="sans-serif" font-size="12" lengthAdjust="spacingAndGlyphs" textLength="36" x="1310.25" y="220.7725">Game</text><line style="stroke: #A80036; stroke-width: 1.5;" x1="1193" x2="1431" y1="232" y2="232"/><rect fill="none" height="6" style="stroke: #C82930; stroke-width: 1.0;" width="6" x="1200" y="240"/><text fill="#000000" font-family="sans-serif" font-size="11" lengthAdjust="spacingAndGlyphs" textLength="115" x="1212" y="247.0591">Configuration config</text><rect fill="none" height="6" style="stroke: #C82930; stroke-width: 1.0;" width="6" x="1200" y="253.3687"/><text fill="#000000" font-family="sans-serif" font-size="11" lengthAdjust="spacingAndGlyphs" textLength="151" x="1212" y="260.4277">ArrayList&lt;Player&gt; players</text><rect fill="none" height="6" style="stroke: #C82930; stroke-width: 1.0;" width="6" x="1200" y="266.7373"/><text fill="#000000" font-family="sans-serif" font-size="11" lengthAdjust="spacingAndGlyphs" textLength="105" x="1212" y="273.7964">GameBoard board</text><line style="stroke: #A80036; stroke-width: 1.5;" x1="1193" x2="1431" y1="280.106" y2="280.106"/><ellipse cx="1203" cy="291.106" fill="#84BE84" rx="3" ry="3" style="stroke: #038048; stroke-width: 1.0;"/><text fill="#000000" font-family="sans-serif" font-size="11" lengthAdjust="spacingAndGlyphs" textLength="151" x="1212" y="295.165">start(Configuration config)</text><ellipse cx="1203" cy="304.4746" fill="#84BE84" rx="3" ry="3" style="stroke: #038048; stroke-width: 1.0;"/><text fill="#000000" font-family="sans-serif" font-size="11" lengthAdjust="spacingAndGlyphs" textLength="214" x="1212" y="308.5337">void loadConfig(Configuration config)</text><!--MD5=[d75b0a238b734941260681f0026bbb88]
class Round--><rect fill="#FEFECE" filter="url(#f5rvcnf8ihk6e)" height="88.106" id="Round" style="stroke: #A80036; stroke-width: 1.5;" width="136" x="1131" y="405.5"/><ellipse cx="1174.8" cy="421.5" fill="#ADD1B2" rx="11" ry="11" style="stroke: #A80036; stroke-width: 1.0;"/><path d="M1178.9563,427.0469 Q1177.2688,428.2188 1175.3313,428.2188 Q1172.8938,428.2188 1171.6125,426.5469 Q1170.3469,424.875 1170.3469,421.7969 Q1170.3469,418.8438 1171.5813,417.1094 Q1172.8156,415.375 1175.3313,415.375 Q1176.2375,415.375 1177.1125,415.6094 Q1178.0031,415.8438 1178.7688,416.3906 L1178.0813,418.0625 Q1176.6438,417.2656 1175.3313,417.2656 Q1173.9094,417.2656 1173.1906,418.3281 Q1172.4875,419.375 1172.4875,421.7969 Q1172.4875,426.3438 1175.3313,426.3438 Q1176.5969,426.3438 1178.2844,425.3594 L1178.9563,427.0469 Z "/><text fill="#000000" font-family="sans-serif" font-size="12" lengthAdjust="spacingAndGlyphs" textLength="40" x="1195.2" y="426.2725">Round</text><line style="stroke: #A80036; stroke-width: 1.5;" x1="1132" x2="1266" y1="437.5" y2="437.5"/><line style="stroke: #A80036; stroke-width: 1.5;" x1="1132" x2="1266" y1="445.5" y2="445.5"/><ellipse cx="1142" cy="456.5" fill="#84BE84" rx="3" ry="3" style="stroke: #038048; stroke-width: 1.0;"/><text fill="#000000" font-family="sans-serif" font-size="11" lengthAdjust="spacingAndGlyphs" textLength="110" x="1151" y="460.5591">preparationPhase()</text><ellipse cx="1142" cy="469.8687" fill="#84BE84" rx="3" ry="3" style="stroke: #038048; stroke-width: 1.0;"/><text fill="#000000" font-family="sans-serif" font-size="11" lengthAdjust="spacingAndGlyphs" textLength="71" x="1151" y="473.9277">offerPhase()</text><ellipse cx="1142" cy="483.2373" fill="#84BE84" rx="3" ry="3" style="stroke: #038048; stroke-width: 1.0;"/><text fill="#000000" font-family="sans-serif" font-size="11" lengthAdjust="spacingAndGlyphs" textLength="104" x="1151" y="487.2964">decorationPhase()</text><!--MD5=[22c35b2018278380345807461f8e26b0]
class GameBoard--><rect fill="#FEFECE" filter="url(#f5rvcnf8ihk6e)" height="114.8433" id="GameBoard" style="stroke: #A80036; stroke-width: 1.5;" width="245" x="1302.5" y="392"/><ellipse cx="1384.25" cy="408" fill="#ADD1B2" rx="11" ry="11" style="stroke: #A80036; stroke-width: 1.0;"/><path d="M1388.4063,413.5469 Q1386.7188,414.7188 1384.7813,414.7188 Q1382.3438,414.7188 1381.0625,413.0469 Q1379.7969,411.375 1379.7969,408.2969 Q1379.7969,405.3438 1381.0313,403.6094 Q1382.2656,401.875 1384.7813,401.875 Q1385.6875,401.875 1386.5625,402.1094 Q1387.4531,402.3438 1388.2188,402.8906 L1387.5313,404.5625 Q1386.0938,403.7656 1384.7813,403.7656 Q1383.3594,403.7656 1382.6406,404.8281 Q1381.9375,405.875 1381.9375,408.2969 Q1381.9375,412.8438 1384.7813,412.8438 Q1386.0469,412.8438 1387.7344,411.8594 L1388.4063,413.5469 Z "/><text fill="#000000" font-family="sans-serif" font-size="12" lengthAdjust="spacingAndGlyphs" textLength="73" x="1404.75" y="412.7725">GameBoard</text><line style="stroke: #A80036; stroke-width: 1.5;" x1="1303.5" x2="1546.5" y1="424" y2="424"/><rect fill="none" height="6" style="stroke: #C82930; stroke-width: 1.0;" width="6" x="1310.5" y="432"/><text fill="#000000" font-family="sans-serif" font-size="11" lengthAdjust="spacingAndGlyphs" textLength="219" x="1322.5" y="439.0591">ArrayList&lt;PlayerBoard&gt; playerBoards</text><rect fill="none" height="6" style="stroke: #C82930; stroke-width: 1.0;" width="6" x="1310.5" y="445.3687"/><text fill="#000000" font-family="sans-serif" font-size="11" lengthAdjust="spacingAndGlyphs" textLength="47" x="1322.5" y="452.4277">Bag bag</text><rect fill="none" height="6" style="stroke: #C82930; stroke-width: 1.0;" width="6" x="1310.5" y="458.7373"/><text fill="#000000" font-family="sans-serif" font-size="11" lengthAdjust="spacingAndGlyphs" textLength="65" x="1322.5" y="465.7964">Trash trash</text><rect fill="none" height="6" style="stroke: #C82930; stroke-width: 1.0;" width="6" x="1310.5" y="472.106"/><text fill="#000000" font-family="sans-serif" font-size="11" lengthAdjust="spacingAndGlyphs" textLength="104" x="1322.5" y="479.165">Factories factories</text><rect fill="none" height="6" style="stroke: #C82930; stroke-width: 1.0;" width="6" x="1310.5" y="485.4746"/><text fill="#000000" font-family="sans-serif" font-size="11" lengthAdjust="spacingAndGlyphs" textLength="106" x="1322.5" y="492.5337">CenterArea center</text><line style="stroke: #A80036; stroke-width: 1.5;" x1="1303.5" x2="1546.5" y1="498.8433" y2="498.8433"/><!--MD5=[335f4d9be48430461c68bf6d6fdba145]
class App--><rect fill="#FEFECE" filter="url(#f5rvcnf8ihk6e)" height="61.3687" id="App" style="stroke: #A80036; stroke-width: 1.5;" width="165" x="1229.5" y="35"/><ellipse cx="1295.75" cy="51" fill="#ADD1B2" rx="11" ry="11" style="stroke: #A80036; stroke-width: 1.0;"/><path d="M1299.9063,56.5469 Q1298.2188,57.7188 1296.2813,57.7188 Q1293.8438,57.7188 1292.5625,56.0469 Q1291.2969,54.375 1291.2969,51.2969 Q1291.2969,48.3438 1292.5313,46.6094 Q1293.7656,44.875 1296.2813,44.875 Q1297.1875,44.875 1298.0625,45.1094 Q1298.9531,45.3438 1299.7188,45.8906 L1299.0313,47.5625 Q1297.5938,46.7656 1296.2813,46.7656 Q1294.8594,46.7656 1294.1406,47.8281 Q1293.4375,48.875 1293.4375,51.2969 Q1293.4375,55.8438 1296.2813,55.8438 Q1297.5469,55.8438 1299.2344,54.8594 L1299.9063,56.5469 Z "/><text fill="#000000" font-family="sans-serif" font-size="12" lengthAdjust="spacingAndGlyphs" textLength="24" x="1316.25" y="55.7725">App</text><line style="stroke: #A80036; stroke-width: 1.5;" x1="1230.5" x2="1393.5" y1="67" y2="67"/><line style="stroke: #A80036; stroke-width: 1.5;" x1="1230.5" x2="1393.5" y1="75" y2="75"/><ellipse cx="1240.5" cy="86" fill="#84BE84" rx="3" ry="3" style="stroke: #038048; stroke-width: 1.0;"/><text fill="#000000" font-family="sans-serif" font-size="11" lengthAdjust="spacingAndGlyphs" textLength="139" x="1249.5" y="90.0591">void main(String[] args)</text><!--MD5=[35e9eef4a8e9a5fbdc9b26fcba80ec29]
reverse link Tile to SpecialTile--><path d="M719,123.61 C719,157.59 719,199.31 719,226.84 " fill="none" id="Tile&lt;-SpecialTile" style="stroke: #A80036; stroke-width: 1.0;"/><polygon fill="none" points="712,123.13,719,103.13,726,123.13,712,123.13" style="stroke: #A80036; stroke-width: 1.0;"/><!--MD5=[de447776230e4ab605a66a0f08cc2b0e]
reverse link Tile to ColoredTile--><path d="M759.12,119.07 C783.6,151.15 814.29,191.36 836.13,219.98 " fill="none" id="Tile&lt;-ColoredTile" style="stroke: #A80036; stroke-width: 1.0;"/><polygon fill="none" points="753.53,123.28,746.96,103.13,764.66,114.79,753.53,123.28" style="stroke: #A80036; stroke-width: 1.0;"/><!--MD5=[925c45144fa675eb576fcb3193f2df86]
reverse link SpecialTile to FirstTile--><path d="M748.59,305.35 C772.65,343.45 805.59,395.6 824.35,425.3 " fill="none" id="SpecialTile&lt;-FirstTile" style="stroke: #A80036; stroke-width: 1.0;"/><polygon fill="none" points="742.51,308.84,737.75,288.19,754.35,301.36,742.51,308.84" style="stroke: #A80036; stroke-width: 1.0;"/><!--MD5=[9d792b125fdc19aebcec20be6d927456]
link Colors to ColoredTile--><path d="M864,123.25 C864,149.76 864,181.04 864,206.63 " fill="none" id="Colors-&gt;ColoredTile" style="stroke: #A80036; stroke-width: 1.0;"/><polygon fill="#A80036" points="864,219.81,868,213.81,864,207.81,860,213.81,864,219.81" style="stroke: #A80036; stroke-width: 1.0;"/><text fill="#000000" font-family="sans-serif" font-size="13" lengthAdjust="spacingAndGlyphs" textLength="78" x="865" y="167.0698">intern enum</text><!--MD5=[3b074cc4b3d83870ad66348a105aa37d]
link Area to Tile--><path d="M557.71,65.5 C585.21,65.5 616.44,65.5 644.05,65.5 " fill="none" id="Area-&gt;Tile" style="stroke: #A80036; stroke-width: 1.0;"/><polygon fill="#A80036" points="649.16,65.5,640.16,61.5,644.16,65.5,640.16,69.5,649.16,65.5" style="stroke: #A80036; stroke-width: 1.0;"/><text fill="#000000" font-family="sans-serif" font-size="13" lengthAdjust="spacingAndGlyphs" textLength="23" x="592" y="59.5698">use</text><!--MD5=[ee2bb9f87db886625600027ed74914f7]
reverse link Area to OffSideArea--><path d="M411,105.79 C339.42,144.32 232.71,201.76 173.84,233.44 " fill="none" id="Area&lt;-OffSideArea" style="stroke: #A80036; stroke-width: 1.0;"/><polygon fill="none" points="407.92,99.5,428.84,96.19,414.55,111.83,407.92,99.5" style="stroke: #A80036; stroke-width: 1.0;"/><!--MD5=[45a71776619e923a7c95b20a5cc72984]
reverse link OffSideArea to Bag--><path d="M109.9,299.83 C90.27,338.27 61.74,394.16 45.84,425.31 " fill="none" id="OffSideArea&lt;-Bag" style="stroke: #A80036; stroke-width: 1.0;"/><polygon fill="none" points="103.78,296.43,119.11,281.8,116.25,302.79,103.78,296.43" style="stroke: #A80036; stroke-width: 1.0;"/><!--MD5=[58e6f06aecea36e1e78f95983b0602a9]
reverse link OffSideArea to Trash--><path d="M131,301.96 C131,340.31 131,394.73 131,425.31 " fill="none" id="OffSideArea&lt;-Trash" style="stroke: #A80036; stroke-width: 1.0;"/><polygon fill="none" points="124,301.8,131,281.8,138,301.8,124,301.8" style="stroke: #A80036; stroke-width: 1.0;"/><!--MD5=[59110c5476ca93194e30cf6c2ccf4a76]
reverse link Area to CommonArea--><path d="M458.93,114.13 C438.92,152.16 411.73,203.8 396.21,233.3 " fill="none" id="Area&lt;-CommonArea" style="stroke: #A80036; stroke-width: 1.0;"/><polygon fill="none" points="452.87,110.63,468.38,96.19,465.25,117.15,452.87,110.63" style="stroke: #A80036; stroke-width: 1.0;"/><!--MD5=[f7fd342d6be7a5ffdc419071a101a283]
reverse link CommonArea to CenterArea--><path d="M356.38,298.26 C329.65,336.73 290.05,393.73 268.11,425.31 " fill="none" id="CommonArea&lt;-CenterArea" style="stroke: #A80036; stroke-width: 1.0;"/><polygon fill="none" points="350.65,294.23,367.81,281.8,362.15,302.22,350.65,294.23" style="stroke: #A80036; stroke-width: 1.0;"/><!--MD5=[9807ec48027abd04e428133a2fb41bab]
reverse link CommonArea to Factories--><path d="M384,301.96 C384,340.31 384,394.73 384,425.31 " fill="none" id="CommonArea&lt;-Factories" style="stroke: #A80036; stroke-width: 1.0;"/><polygon fill="none" points="377,301.8,384,281.8,391,301.8,377,301.8" style="stroke: #A80036; stroke-width: 1.0;"/><!--MD5=[577fb1b1195f62b455ab0b24da174df2]
reverse link Area to PlayerArea--><path d="M502.34,114.91 C516.73,152.86 536.11,204.01 547.21,233.3 " fill="none" id="Area&lt;-PlayerArea" style="stroke: #A80036; stroke-width: 1.0;"/><polygon fill="none" points="495.79,117.37,495.25,96.19,508.88,112.41,495.79,117.37" style="stroke: #A80036; stroke-width: 1.0;"/><!--MD5=[fed03bf4461600b658ccfe1fc2e680b6]
reverse link PlayerArea to Wall--><path d="M541.94,300.89 C529.21,339.29 510.92,394.44 500.69,425.31 " fill="none" id="PlayerArea&lt;-Wall" style="stroke: #A80036; stroke-width: 1.0;"/><polygon fill="none" points="535.34,298.58,548.27,281.8,548.62,302.98,535.34,298.58" style="stroke: #A80036; stroke-width: 1.0;"/><!--MD5=[918b64ad579e9c06438f3983cf38ce8e]
reverse link PlayerArea to Floor--><path d="M563.5,301.69 C570.17,340.06 579.65,394.66 584.97,425.31 " fill="none" id="PlayerArea&lt;-Floor" style="stroke: #A80036; stroke-width: 1.0;"/><polygon fill="none" points="556.57,302.7,560.05,281.8,570.37,300.3,556.57,302.7" style="stroke: #A80036; stroke-width: 1.0;"/><!--MD5=[9e009dfac7faec44cd42eed34a9c30af]
reverse link PlayerArea to PatternArea--><path d="M587.6,297.48 C618.78,335.96 665.43,393.52 691.2,425.31 " fill="none" id="PlayerArea&lt;-PatternArea" style="stroke: #A80036; stroke-width: 1.0;"/><polygon fill="none" points="582.04,301.74,574.88,281.8,592.91,292.93,582.04,301.74" style="stroke: #A80036; stroke-width: 1.0;"/><!--MD5=[480206b57360204782f62575e8914631]
reverse link Player to HumanPlayer--><path d="M1171.28,827.47 C1162.47,842.38 1153.12,858.22 1145.75,870.71 " fill="none" id="Player&lt;-HumanPlayer" style="stroke: #A80036; stroke-width: 1.0;"/><polygon fill="none" points="1165.38,823.69,1181.57,810.02,1177.43,830.81,1165.38,823.69" style="stroke: #A80036; stroke-width: 1.0;"/><!--MD5=[84792a9ceba12ab2963e2dfec4d661ea]
reverse link Player to AIPlayer--><path d="M1227.14,827.47 C1236.07,842.38 1245.57,858.22 1253.04,870.71 " fill="none" id="Player&lt;-AIPlayer" style="stroke: #A80036; stroke-width: 1.0;"/><polygon fill="none" points="1220.96,830.78,1216.69,810.02,1232.97,823.58,1220.96,830.78" style="stroke: #A80036; stroke-width: 1.0;"/><!--MD5=[b7446e575148ef278ac3a4fe4160b248]
link PlayerBoard to Player--><path d="M1199,672.24 C1199,692.14 1199,715.69 1199,735.55 " fill="none" id="PlayerBoard-&gt;Player" style="stroke: #A80036; stroke-width: 1.0;"/><polygon fill="#A80036" points="1199,748.62,1203,742.62,1199,736.62,1195,742.62,1199,748.62" style="stroke: #A80036; stroke-width: 1.0;"/><text fill="#000000" font-family="sans-serif" font-size="13" lengthAdjust="spacingAndGlyphs" textLength="76" x="1200" y="716.0698">intern class</text><!--MD5=[d249e7029ae2e877eb8745825ce51340]
link Configuration to Game--><path d="M1079.54,257.5 C1108.16,257.5 1143.88,257.5 1178.66,257.5 " fill="none" id="Configuration-&gt;Game" style="stroke: #A80036; stroke-width: 1.0;"/><polygon fill="#A80036" points="1191.93,257.5,1185.93,253.5,1179.93,257.5,1185.93,261.5,1191.93,257.5" style="stroke: #A80036; stroke-width: 1.0;"/><text fill="#000000" font-family="sans-serif" font-size="13" lengthAdjust="spacingAndGlyphs" textLength="76" x="1097.75" y="251.5698">intern class</text><!--MD5=[b5dcc497229e4ca43a9a557230ce0430]
link Game to Round--><path d="M1278.25,315.25 C1262.02,342.54 1242.78,374.88 1227.33,400.87 " fill="none" id="Game-&gt;Round" style="stroke: #A80036; stroke-width: 1.0;"/><polygon fill="#A80036" points="1224.68,405.32,1232.7265,399.6408,1227.2419,401.0262,1225.8565,395.5417,1224.68,405.32" style="stroke: #A80036; stroke-width: 1.0;"/><text fill="#000000" font-family="sans-serif" font-size="13" lengthAdjust="spacingAndGlyphs" textLength="59" x="1260" y="359.0698">observes</text><!--MD5=[4221f985a10d75b7986642991552ce8d]
link Game to GameBoard--><path d="M1345.75,315.25 C1359.22,337.9 1374.77,364.04 1388.51,387.14 " fill="none" id="Game-&gt;GameBoard" style="stroke: #A80036; stroke-width: 1.0;"/><polygon fill="#A80036" points="1391.23,391.72,1390.0678,381.94,1388.6743,387.4225,1383.1918,386.029,1391.23,391.72" style="stroke: #A80036; stroke-width: 1.0;"/><text fill="#000000" font-family="sans-serif" font-size="13" lengthAdjust="spacingAndGlyphs" textLength="20" x="1372" y="359.0698">init</text><!--MD5=[ff7a4677f192ed3581af7af5113f614a]
link Round to PlayerBoard--><path d="M1199,493.68 C1199,519.41 1199,552.14 1199,578.73 " fill="none" id="Round-&gt;PlayerBoard" style="stroke: #A80036; stroke-width: 1.0;"/><polygon fill="#A80036" points="1199,583.96,1203,574.96,1199,578.96,1195,574.96,1199,583.96" style="stroke: #A80036; stroke-width: 1.0;"/><text fill="#000000" font-family="sans-serif" font-size="13" lengthAdjust="spacingAndGlyphs" textLength="59" x="1200" y="551.0698">observes</text><!--MD5=[3b6acec969a74acc1c8f61eb8d108ea5]
link App to Game--><path d="M1312,96.19 C1312,122.44 1312,161.59 1312,194.63 " fill="none" id="App-&gt;Game" style="stroke: #A80036; stroke-width: 1.0;"/><polygon fill="#A80036" points="1312,199.88,1316,190.88,1312,194.88,1308,190.88,1312,199.88" style="stroke: #A80036; stroke-width: 1.0;"/><text fill="#000000" font-family="sans-serif" font-size="13" lengthAdjust="spacingAndGlyphs" textLength="29" x="1313" y="167.0698">calls</text><!--MD5=[bed15313b069f0fbb8c8cb41f8e2eaad]
@startuml

Abstract class Tile {
	-Area currentArea
	+moveTo(Area area)
}


Tile <|- - SpecialTile
abstract class SpecialTile {
	+effect()
}

Tile <|- - ColoredTile
class ColoredTile {
	-Colors color
	+Colors getColor()
}

SpecialTile <|- - FirstTile
class FirstTile

Colors - -* ColoredTile : "intern enum"
enum Colors {
	BLUE
	RED
	GREEN
	BLACK
	YELLOW	
}

Area -right-> Tile : "use"
abstract class Area {
	-Collection<Tile> tiles
}

Area <|- - OffSideArea
abstract class OffSideArea
OffSideArea <|- - Bag
OffSideArea <|- - Trash

Area <|- - CommonArea
abstract class CommonArea
CommonArea <|- - CenterArea
CommonArea <|- - Factories

Area <|- - PlayerArea
abstract class PlayerArea
PlayerArea <|- - Wall
PlayerArea <|- - Floor
PlayerArea <|- - PatternArea

abstract class Player {
	int score
}

Player <|- - HumanPlayer
Player <|- - AIPlayer


class PlayerBoard
PlayerBoard - -* Player : "intern class"


Configuration -left-* Game : "intern class"
class Configuration {
	int nbOfPlayers
	AIDifficulty

}

Game - -> Round : "observes"
class Game {
	-Configuration config
	-ArrayList<Player> players
	-GameBoard board
	+start(Configuration config)
	+void loadConfig(Configuration config)
}

Game - -> GameBoard : "init"
class GameBoard {
	-ArrayList<PlayerBoard> playerBoards
	-Bag bag
	-Trash trash
	-Factories factories
	-CenterArea center
}
	
Round - -> PlayerBoard : "observes"
class PlayerBoard {
	-Wall playerWall
	-Floor playerFloor
	-PatternArea playerPatternArea
}

class Round {
	+preparationPhase()
	+offerPhase()
	+decorationPhase()	
}


App - -> Game : "calls"
class App {
	+void main(String[] args)
}


@enduml

PlantUML version 1.2019.12(Sun Nov 03 11:24:54 CET 2019)
(GPL source distribution)
Java Runtime: OpenJDK Runtime Environment
JVM: OpenJDK 64-Bit Server VM
Java Version: 10.0.2+13
Operating System: Linux
Default Encoding: UTF-8
Language: fr
Country: FR
--></g></svg>